<svg width="33" height="32" viewBox="0 0 33 32" fill="none" xmlns="http://www.w3.org/2000/svg">
<path d="M0 0H27V32H0V0Z" fill="white"/>
<path fill-rule="evenodd" clip-rule="evenodd" d="M27 0H0V32H27V31H1V1H27V0Z" fill="#909090"/>
<path d="M27 0H33V32H27V0Z" fill="url(#paint0_linear_1_10)"/>
<path fill-rule="evenodd" clip-rule="evenodd" d="M27 32H33V0H27V1H32V31H27V32Z" fill="#909090"/>
<path d="M3.35795 23H1.51136L6.85227 8.45455H8.67045L14.0114 23H12.1648L7.81818 10.7557H7.70455L3.35795 23ZM4.03977 17.3182H11.483V18.8807H4.03977V17.3182Z" fill="black"/>
<path d="M17.7259 16.4375V23H16.0497V8.45455H17.7259V13.7955H17.8679C18.1236 13.232 18.5071 12.7846 19.0185 12.4531C19.5346 12.117 20.2211 11.9489 21.0781 11.9489C21.8215 11.9489 22.4725 12.098 23.0312 12.3963C23.59 12.6899 24.0232 13.142 24.331 13.7528C24.6435 14.3589 24.7997 15.1307 24.7997 16.0682V23H23.1236V16.1818C23.1236 15.3153 22.8987 14.6454 22.4489 14.1719C22.0038 13.6937 21.3859 13.4545 20.5952 13.4545C20.0459 13.4545 19.5535 13.5705 19.1179 13.8026C18.687 14.0346 18.3461 14.3731 18.0952 14.8182C17.849 15.2633 17.7259 15.803 17.7259 16.4375Z" fill="black"/>
<path d="M29.0877 23.1136C28.7373 23.1136 28.4367 22.9882 28.1857 22.7372C27.9348 22.4863 27.8093 22.1856 27.8093 21.8352C27.8093 21.4848 27.9348 21.1842 28.1857 20.9332C28.4367 20.6823 28.7373 20.5568 29.0877 20.5568C29.4381 20.5568 29.7388 20.6823 29.9897 20.9332C30.2406 21.1842 30.3661 21.4848 30.3661 21.8352C30.3661 22.0672 30.3069 22.2803 30.1886 22.4744C30.0749 22.6686 29.921 22.8248 29.7269 22.9432C29.5375 23.0568 29.3245 23.1136 29.0877 23.1136Z" fill="black"/>
<defs>
<linearGradient id="paint0_linear_1_10" x1="16.5" y1="0" x2="16.5" y2="32" gradientUnits="userSpaceOnUse">
<stop stop-color="#D9D9D9"/>
<stop offset="0.414" stop-color="#D9D9D9" stop-opacity="0.0160004"/>
<stop offset="1" stop-color="#D9D9D9" stop-opacity="0"/>
</linearGradient>
</defs>
</svg>
